<svg width="32" height="32" viewBox="0 0 32 32" fill="none" xmlns="http://www.w3.org/2000/svg">
<path d="M15.9998 2.6665C8.65317 2.6665 2.6665 8.65317 2.6665 15.9998C2.6665 23.3465 8.65317 29.3332 15.9998 29.3332C17.8398 29.3332 19.3332 27.8398 19.3332 25.9998C19.3332 25.1865 19.0265 24.3998 18.4798 23.7732C18.3732 23.6398 18.3065 23.4932 18.3065 23.3332C18.3065 22.9598 18.5998 22.6665 18.9732 22.6665H21.3332C25.7465 22.6665 29.3332 19.0798 29.3332 14.6665C29.3332 8.05317 23.3465 2.6665 15.9998 2.6665ZM23.3332 17.3332C22.2265 17.3332 21.3332 16.4398 21.3332 15.3332C21.3332 14.2265 22.2265 13.3332 23.3332 13.3332C24.4398 13.3332 25.3332 14.2265 25.3332 15.3332C25.3332 16.4398 24.4398 17.3332 23.3332 17.3332ZM19.3332 11.9998C18.2265 11.9998 17.3332 11.1065 17.3332 9.99984C17.3332 8.89317 18.2265 7.99984 19.3332 7.99984C20.4398 7.99984 21.3332 8.89317 21.3332 9.99984C21.3332 11.1065 20.4398 11.9998 19.3332 11.9998ZM6.6665 15.3332C6.6665 14.2265 7.55984 13.3332 8.6665 13.3332C9.77317 13.3332 10.6665 14.2265 10.6665 15.3332C10.6665 16.4398 9.77317 17.3332 8.6665 17.3332C7.55984 17.3332 6.6665 16.4398 6.6665 15.3332ZM14.6665 9.99984C14.6665 11.1065 13.7732 11.9998 12.6665 11.9998C11.5598 11.9998 10.6665 11.1065 10.6665 9.99984C10.6665 8.89317 11.5598 7.99984 12.6665 7.99984C13.7732 7.99984 14.6665 8.89317 14.6665 9.99984Z" fill="#AAAEB9"/>
</svg>
